<svg xmlns="http://www.w3.org/2000/svg" width="135" height="40"><defs><linearGradient x1="60.9903275%" y1="4.94615078%" x2="26.5360307%" y2="71.8787395%" id="A"><stop stop-color="#00a0ff" offset="0%"/><stop stop-color="#00a1ff" offset="1%"/><stop stop-color="#00beff" offset="26%"/><stop stop-color="#00d2ff" offset="51%"/><stop stop-color="#00dfff" offset="76%"/><stop stop-color="#00e3ff" offset="100%"/></linearGradient><linearGradient x1="107.684729%" y1="50%" x2="-130.640394%" y2="50%" id="B"><stop stop-color="#ffe000" offset="0%"/><stop stop-color="#ffbd00" offset="41%"/><stop stop-color="orange" offset="78%"/><stop stop-color="#ff9c00" offset="100%"/></linearGradient><linearGradient x1="86.2709832%" y1="30.8725537%" x2="-50.1798561%" y2="136.108936%" id="C"><stop stop-color="#ff3a44" offset="0%"/><stop stop-color="#c31162" offset="100%"/></linearGradient><linearGradient x1="-18.82494%" y1="-11.9103989%" x2="42.0863309%" y2="35.0790955%" id="D"><stop stop-color="#32a071" offset="0%"/><stop stop-color="#2da771" offset="7%"/><stop stop-color="#15cf74" offset="48%"/><stop stop-color="#06e775" offset="80%"/><stop stop-color="#00f076" offset="100%"/></linearGradient></defs><g fill-rule="evenodd"><rect fill="#000" width="135" height="40" rx="5.62"/><g stroke="#fff" stroke-width=".5" fill="#fff"><path d="M47.42 10.24a2.72 2.72 0 0 1-.75 2 2.9 2.9 0 0 1-2.2.88 3 3 0 0 1-2.21-.9 3 3 0 0 1-.91-2.22 3 3 0 0 1 .91-2.23 3.16 3.16 0 0 1 3.44-.65 2.54 2.54 0 0 1 .94.67l-.53.53a2 2 0 0 0-1.64-.72 2.32 2.32 0 0 0-2.33 2.4 2.36 2.36 0 0 0 4 1.73 1.93 1.93 0 0 0 .51-1.22h-2.18v-.72h2.91a3.75 3.75 0 0 1 .04.45zM52 7.74h-2.7v1.9h2.46v.72H49.3v1.9H52V13h-3.48V7H52zM55.28 13h-.77V7.74h-1.68V7H57v.74h-1.72zm4.66 0V7h.77v6zm4.19 0h-.77V7.74h-1.68V7h4.12v.74h-1.67z"/><path d="M73.61 12.22a3.11 3.11 0 0 1-4.4 0 3 3 0 0 1-.88-2.22 3 3 0 0 1 .88-2.22 2.93 2.93 0 0 1 2.2-.91 3 3 0 0 1 2.2.91 3.07 3.07 0 0 1 .88 2.22 3 3 0 0 1-.88 2.22h0zm-3.83-.5a2.29 2.29 0 0 0 3.26 0 2.36 2.36 0 0 0 .67-1.72A2.36 2.36 0 0 0 73 8.28a2.29 2.29 0 0 0-3.26 0 2.36 2.36 0 0 0-.63 1.72 2.36 2.36 0 0 0 .67 1.72h0z" fill-rule="nonzero"/><path d="M75.58 13V7h.93l2.92 4.67v-1.16V7h.77v6h-.8l-3.05-4.89v1.15V13z"/></g><path d="M68.14 21.75a4.26 4.26 0 0 0 .02 8.52A4.26 4.26 0 0 0 72.41 26a4.19 4.19 0 0 0-4.27-4.25zm0 6.83a2.58 2.58 0 0 1-2.069-4.331A2.58 2.58 0 0 1 70.54 26a2.46 2.46 0 0 1-2.4 2.58zm-9.32-6.83a4.26 4.26 0 0 0 .02 8.52A4.26 4.26 0 0 0 63.09 26a4.19 4.19 0 0 0-4.27-4.25zm0 6.83a2.58 2.58 0 0 1-2.069-4.331A2.58 2.58 0 0 1 61.22 26a2.46 2.46 0 0 1-2.4 2.58zm-11.08-5.52v1.8h4.32a3.77 3.77 0 0 1-1 2.27 4.42 4.42 0 0 1-3.34 1.32 4.8 4.8 0 0 1 0-9.6A4.64 4.64 0 0 1 51 20.14l1.27-1.27a6.3 6.3 0 0 0-4.53-1.82 6.61 6.61 0 0 0-5.938 9.984 6.61 6.61 0 0 0 5.938 3.226 6.07 6.07 0 0 0 4.61-1.85 6 6 0 0 0 1.56-4.23 6.27 6.27 0 0 0-.09-1.12h-6.08zm45.31 1.4a4 4 0 0 0-3.64-2.71 4 4 0 0 0-4 4.25 4.23 4.23 0 0 0 7.76 2.37l-1.45-1a2.41 2.41 0 0 1-2.09 1.17 2.15 2.15 0 0 1-2.06-1.29l5.69-2.35-.21-.44zm-5.8 1.42a2.33 2.33 0 0 1 2.23-2.48 1.64 1.64 0 0 1 1.57.9l-3.8 1.58zM82.63 30h1.87V17.5h-1.87V30zm-3.06-7.3h-.07a2.94 2.94 0 0 0-2.24-.95 4.26 4.26 0 0 0 0 8.51 2.88 2.88 0 0 0 2.24-1h.07v.61c0 1.63-.87 2.5-2.27 2.5a2.36 2.36 0 0 1-2.15-1.51l-1.62.67a4 4 0 0 0 3.77 2.52c2.19 0 4-1.29 4-4.43V22h-1.73v.7zm-2.15 5.88a2.58 2.58 0 0 1 0-5.15A2.39 2.39 0 0 1 79.7 26a2.38 2.38 0 0 1-2.28 2.58h0zm24.39-11.08h-4.48V30h1.87v-4.74h2.61a3.89 3.89 0 0 0 3.6-5.905 3.89 3.89 0 0 0-3.6-1.855h0zm0 6H99.2v-4.26h2.65a2.14 2.14 0 1 1 0 4.28l-.04-.02zm11.54-1.79a3.49 3.49 0 0 0-3.33 1.91l1.65.69a1.78 1.78 0 0 1 1.71-.91 1.8 1.8 0 0 1 2 1.61v.12a4.18 4.18 0 0 0-1.95-.48c-1.78 0-3.6 1-3.6 2.82a2.89 2.89 0 0 0 3.11 2.75 2.65 2.65 0 0 0 2.38-1.22h.06v1h1.8v-4.81c0-2.19-1.66-3.46-3.79-3.46l-.04-.02zm-.23 6.85c-.61 0-1.46-.31-1.46-1.06 0-1 1.06-1.34 2-1.34a3.32 3.32 0 0 1 1.7.42 2.26 2.26 0 0 1-2.2 2l-.04-.02zM123.74 22l-2.14 5.42h-.06L119.32 22h-2l3.33 7.58-1.9 4.21h2L125.82 22h-2.08zm-16.8 8h1.86V17.5h-1.86V30z" fill="#fff" fill-rule="nonzero"/><path d="M10.44 7.54a2 2 0 0 0-.44 1.4v22.12a1.94 1.94 0 0 0 .47 1.4l.07.08L22.9 20.15v-.3L10.51 7.47l-.07.07z" fill="url(#A)"/><path d="M27 24.28l-4.1-4.13v-.3l4.1-4.13.09.06L32 18.56c1.4.79 1.4 2.09 0 2.89l-4.89 2.78-.11.05z" fill="url(#B)"/><path d="M27.12 24.23L22.9 20 10.44 32.46a1.62 1.62 0 0 0 2.07.07l14.61-8.3" fill="url(#C)"/><path d="M27.12 15.78l-14.61-8.3a1.61 1.61 0 0 0-2.07.06L22.9 20l4.22-4.22z" fill="url(#D)"/><g fill="#000"><path d="M27 24.13l-14.49 8.25a1.66 1.66 0 0 1-2 0h0l-.07.07h0l.07.08h0a1.66 1.66 0 0 0 2 0l14.61-8.3-.12-.1z" opacity=".2"/><path d="M10.44 32.32a2 2 0 0 1-.44-1.41v.15a1.94 1.94 0 0 0 .47 1.4l.07-.07-.1-.07zM32 21.3l-5 2.83.09.1L32 21.44A1.75 1.75 0 0 0 33.06 20h0A1.86 1.86 0 0 1 32 21.3h0z" opacity=".12"/></g><path d="M12.51 7.62L32 18.7a1.86 1.86 0 0 1 1.06 1.3h0A1.75 1.75 0 0 0 32 18.56L12.51 7.48C11.12 6.68 10 7.34 10 8.94v.15c0-1.6 1.12-2.26 2.51-1.47z" fill="#fff" opacity=".25"/></g></svg>